<?xml version="1.0" encoding="UTF-8" standalone="no"?><svg xmlns="http://www.w3.org/2000/svg" xmlns:xlink="http://www.w3.org/1999/xlink" contentScriptType="application/ecmascript" contentStyleType="text/css" height="314px" preserveAspectRatio="none" style="width:347px;height:314px;" version="1.1" viewBox="0 0 347 314" width="347px" zoomAndPan="magnify"><defs><filter height="300%" id="f1cimo7kqn0n2j" width="300%" x="-1" y="-1"><feGaussianBlur result="blurOut" stdDeviation="2.0"/><feColorMatrix in="blurOut" result="blurOut2" type="matrix" values="0 0 0 0 0 0 0 0 0 0 0 0 0 0 0 0 0 0 .4 0"/><feOffset dx="4.0" dy="4.0" in="blurOut2" result="blurOut3"/><feBlend in="SourceGraphic" in2="blurOut3" mode="normal"/></filter></defs><g><line style="stroke: #A80036; stroke-width: 1.0; stroke-dasharray: 5.0,5.0;" x1="27" x2="27" y1="87.6094" y2="229.0156"/><line style="stroke: #A80036; stroke-width: 1.0; stroke-dasharray: 5.0,5.0;" x1="96" x2="96" y1="87.6094" y2="229.0156"/><line style="stroke: #A80036; stroke-width: 1.0; stroke-dasharray: 5.0,5.0;" x1="170" x2="170" y1="87.6094" y2="229.0156"/><line style="stroke: #A80036; stroke-width: 1.0; stroke-dasharray: 5.0,5.0;" x1="224" x2="224" y1="87.6094" y2="229.0156"/><line style="stroke: #A80036; stroke-width: 1.0; stroke-dasharray: 5.0,5.0;" x1="273" x2="273" y1="87.6094" y2="229.0156"/><line style="stroke: #A80036; stroke-width: 1.0; stroke-dasharray: 5.0,5.0;" x1="322" x2="322" y1="87.6094" y2="229.0156"/><text fill="#000000" font-family="sans-serif" font-size="14" lengthAdjust="spacingAndGlyphs" textLength="33" x="8" y="84.5332">Foo1</text><ellipse cx="27.5" cy="13" fill="#FEFECE" filter="url(#f1cimo7kqn0n2j)" rx="8" ry="8" style="stroke: #A80036; stroke-width: 2.0;"/><path d="M27.5,21 L27.5,48 M14.5,29 L40.5,29 M27.5,48 L14.5,63 M27.5,48 L40.5,63 " fill="#FEFECE" filter="url(#f1cimo7kqn0n2j)" style="stroke: #A80036; stroke-width: 2.0;"/><text fill="#000000" font-family="sans-serif" font-size="14" lengthAdjust="spacingAndGlyphs" textLength="33" x="8" y="242.5488">Foo1</text><ellipse cx="27.5" cy="255.625" fill="#FEFECE" filter="url(#f1cimo7kqn0n2j)" rx="8" ry="8" style="stroke: #A80036; stroke-width: 2.0;"/><path d="M27.5,263.625 L27.5,290.625 M14.5,271.625 L40.5,271.625 M27.5,290.625 L14.5,305.625 M27.5,290.625 L40.5,305.625 " fill="#FEFECE" filter="url(#f1cimo7kqn0n2j)" style="stroke: #A80036; stroke-width: 2.0;"/><text fill="#000000" font-family="sans-serif" font-size="14" lengthAdjust="spacingAndGlyphs" textLength="73" x="57" y="84.5332">Foo1gfdgdf</text><ellipse cx="96.5" cy="13" fill="#FEFECE" filter="url(#f1cimo7kqn0n2j)" rx="8" ry="8" style="stroke: #A80036; stroke-width: 2.0;"/><path d="M96.5,21 L96.5,48 M83.5,29 L109.5,29 M96.5,48 L83.5,63 M96.5,48 L109.5,63 " fill="#FEFECE" filter="url(#f1cimo7kqn0n2j)" style="stroke: #A80036; stroke-width: 2.0;"/><text fill="#000000" font-family="sans-serif" font-size="14" lengthAdjust="spacingAndGlyphs" textLength="73" x="57" y="242.5488">Foo1gfdgdf</text><ellipse cx="96.5" cy="255.625" fill="#FEFECE" filter="url(#f1cimo7kqn0n2j)" rx="8" ry="8" style="stroke: #A80036; stroke-width: 2.0;"/><path d="M96.5,263.625 L96.5,290.625 M83.5,271.625 L109.5,271.625 M96.5,290.625 L83.5,305.625 M96.5,290.625 L109.5,305.625 " fill="#FEFECE" filter="url(#f1cimo7kqn0n2j)" style="stroke: #A80036; stroke-width: 2.0;"/><text fill="#000000" font-family="sans-serif" font-size="14" lengthAdjust="spacingAndGlyphs" textLength="33" x="151" y="84.5332">Foo2</text><path d="M150,42 L150,66 M150,54 L167,54 " fill="#FEFECE" filter="url(#f1cimo7kqn0n2j)" style="stroke: #A80036; stroke-width: 2.0;"/><ellipse cx="179" cy="54" fill="#FEFECE" filter="url(#f1cimo7kqn0n2j)" rx="12" ry="12" style="stroke: #A80036; stroke-width: 2.0;"/><text fill="#000000" font-family="sans-serif" font-size="14" lengthAdjust="spacingAndGlyphs" textLength="33" x="151" y="242.5488">Foo2</text><path d="M150,249.625 L150,273.625 M150,261.625 L167,261.625 " fill="#FEFECE" filter="url(#f1cimo7kqn0n2j)" style="stroke: #A80036; stroke-width: 2.0;"/><ellipse cx="179" cy="261.625" fill="#FEFECE" filter="url(#f1cimo7kqn0n2j)" rx="12" ry="12" style="stroke: #A80036; stroke-width: 2.0;"/><text fill="#000000" font-family="sans-serif" font-size="14" lengthAdjust="spacingAndGlyphs" textLength="33" x="205" y="84.5332">Foo3</text><ellipse cx="224.5" cy="54" fill="#FEFECE" filter="url(#f1cimo7kqn0n2j)" rx="12" ry="12" style="stroke: #A80036; stroke-width: 2.0;"/><polygon fill="#A80036" points="220.5,42,226.5,37,224.5,42,226.5,47,220.5,42" style="stroke: #A80036; stroke-width: 1.0;"/><text fill="#000000" font-family="sans-serif" font-size="14" lengthAdjust="spacingAndGlyphs" textLength="33" x="205" y="242.5488">Foo3</text><ellipse cx="224.5" cy="261.625" fill="#FEFECE" filter="url(#f1cimo7kqn0n2j)" rx="12" ry="12" style="stroke: #A80036; stroke-width: 2.0;"/><polygon fill="#A80036" points="220.5,249.625,226.5,244.625,224.5,249.625,226.5,254.625,220.5,249.625" style="stroke: #A80036; stroke-width: 1.0;"/><text fill="#000000" font-family="sans-serif" font-size="14" lengthAdjust="spacingAndGlyphs" textLength="33" x="254" y="84.5332">Foo4</text><ellipse cx="273.5" cy="54" fill="#FEFECE" filter="url(#f1cimo7kqn0n2j)" rx="12" ry="12" style="stroke: #A80036; stroke-width: 2.0;"/><line style="stroke: #A80036; stroke-width: 2.0;" x1="261.5" x2="285.5" y1="68" y2="68"/><text fill="#000000" font-family="sans-serif" font-size="14" lengthAdjust="spacingAndGlyphs" textLength="33" x="254" y="242.5488">Foo4</text><ellipse cx="273.5" cy="261.625" fill="#FEFECE" filter="url(#f1cimo7kqn0n2j)" rx="12" ry="12" style="stroke: #A80036; stroke-width: 2.0;"/><line style="stroke: #A80036; stroke-width: 2.0;" x1="261.5" x2="285.5" y1="275.625" y2="275.625"/><text fill="#000000" font-family="sans-serif" font-size="14" lengthAdjust="spacingAndGlyphs" textLength="33" x="303" y="84.5332">Foo5</text><path d="M304.5,34 C304.5,24 322.5,24 322.5,24 C322.5,24 340.5,24 340.5,34 L340.5,60 C340.5,70 322.5,70 322.5,70 C322.5,70 304.5,70 304.5,60 L304.5,34 " fill="#FEFECE" filter="url(#f1cimo7kqn0n2j)" style="stroke: #000000; stroke-width: 1.5;"/><path d="M304.5,34 C304.5,44 322.5,44 322.5,44 C322.5,44 340.5,44 340.5,34 " fill="none" style="stroke: #000000; stroke-width: 1.5;"/><text fill="#000000" font-family="sans-serif" font-size="14" lengthAdjust="spacingAndGlyphs" textLength="33" x="303" y="242.5488">Foo5</text><path d="M304.5,255.625 C304.5,245.625 322.5,245.625 322.5,245.625 C322.5,245.625 340.5,245.625 340.5,255.625 L340.5,281.625 C340.5,291.625 322.5,291.625 322.5,291.625 C322.5,291.625 304.5,291.625 304.5,281.625 L304.5,255.625 " fill="#FEFECE" filter="url(#f1cimo7kqn0n2j)" style="stroke: #000000; stroke-width: 1.5;"/><path d="M304.5,255.625 C304.5,265.625 322.5,265.625 322.5,265.625 C322.5,265.625 340.5,265.625 340.5,255.625 " fill="none" style="stroke: #000000; stroke-width: 1.5;"/><polygon fill="#A80036" points="158.5,115.6094,168.5,119.6094,158.5,123.6094,162.5,119.6094" style="stroke: #A80036; stroke-width: 1.0;"/><line style="stroke: #A80036; stroke-width: 1.0;" x1="27.5" x2="164.5" y1="119.6094" y2="119.6094"/><text fill="#000000" font-family="sans-serif" font-size="13" lengthAdjust="spacingAndGlyphs" textLength="71" x="34.5" y="115.1045">To boundary</text><polygon fill="#A80036" points="212.5,145.9609,222.5,149.9609,212.5,153.9609,216.5,149.9609" style="stroke: #A80036; stroke-width: 1.0;"/><line style="stroke: #A80036; stroke-width: 1.0;" x1="27.5" x2="218.5" y1="149.9609" y2="149.9609"/><text fill="#000000" font-family="sans-serif" font-size="13" lengthAdjust="spacingAndGlyphs" textLength="57" x="34.5" y="145.4561">To control</text><polygon fill="#A80036" points="261.5,176.3125,271.5,180.3125,261.5,184.3125,265.5,180.3125" style="stroke: #A80036; stroke-width: 1.0;"/><line style="stroke: #A80036; stroke-width: 1.0;" x1="27.5" x2="267.5" y1="180.3125" y2="180.3125"/><text fill="#000000" font-family="sans-serif" font-size="13" lengthAdjust="spacingAndGlyphs" textLength="50" x="34.5" y="175.8076">To entity</text><polygon fill="#A80036" points="310.5,206.6641,320.5,210.6641,310.5,214.6641,314.5,210.6641" style="stroke: #A80036; stroke-width: 1.0;"/><line style="stroke: #A80036; stroke-width: 1.0;" x1="27.5" x2="316.5" y1="210.6641" y2="210.6641"/><text fill="#000000" font-family="sans-serif" font-size="13" lengthAdjust="spacingAndGlyphs" textLength="71" x="34.5" y="206.1592">To database</text><!--
@startuml
actor Foo1
actor Foo1gfdgdf
boundary Foo2
control Foo3
entity Foo4
database Foo5
Foo1 -> Foo2 : To boundary
Foo1 -> Foo3 : To control
Foo1 -> Foo4 : To entity
Foo1 -> Foo5 : To database

@enduml

PlantUML version 2017.11(Wed Apr 19 19:18:59 EEST 2017)
(GPL source distribution)
Java Runtime: Java(TM) SE Runtime Environment
JVM: Java HotSpot(TM) 64-Bit Server VM
Java Version: 1.8.0_161-b12
Operating System: Windows 10
OS Version: 10.0
Default Encoding: Cp1252
Language: en
Country: US
--></g></svg>